# xmcd
# 
# Track frame offsets:
#     150
#     33500
#     61042
#     88019
#     120744
#     144049
#     179936
# 
# Disc length: 2905
# 
# Revision: 1
# Processed by: cddbd v1.5.2PL0 Copyright (c) Steve Scherf et al.
# Submitted via: fre:ac v1.0.31
# 
DISCID=5b0b5707
DTITLE=Various Artist - Must Have Maxis Vol. 6
DYEAR=2010
DGENRE=Pop
TTITLE0=City - Am Fenster (Special Version)
TTITLE1=Rio Reiser - König von Deutschland (Monarcho Mix)
TTITLE2=Hans Kröger - Der blonde Hans
TTITLE3=Nena - Irgendwie, Irgendwo, Irgendwann (Special 12"Dance-Mix)
TTITLE4=Münchener Freiheit - Ohne dich (schlaf' ich heut' Nacht nicht ein ) (Maxi Version)
TTITLE5=Spliff - Rock Is A Drug
TTITLE6=Selig - Fadensonnen (Album Version)
EXTD=
EXTT0=
EXTT1=
EXTT2=
EXTT3=
EXTT4=
EXTT5=
EXTT6=
PLAYORDER=
